<svg width="30" height="30" viewBox="0 0 30 30" fill="none" xmlns="http://www.w3.org/2000/svg">
<g clip-path="url(#clip0_7702_319)">
<path d="M12.214 5.12613L9.86101 1H5.11035L8.37948 5.12613H12.214Z" fill="#00D352"/>
<path d="M18.2016 15.4677V7.16106H14.0516V8.3452C12.7537 7.50169 11.2307 6.98657 9.60181 6.98657C4.85115 6.98657 1 10.7956 1 15.4933C1 20.191 4.85115 24.0001 9.60181 24.0001C11.2307 24.0001 12.7527 23.485 14.0516 22.6404V23.8256H18.2016C18.2016 23.8256 18.2016 15.5015 18.2016 15.4933C18.2016 15.4851 18.2016 15.4759 18.2016 15.4677ZM9.60181 20.0402C7.06207 20.0402 5.00367 18.0043 5.00367 15.4933C5.00367 12.9824 7.06207 10.9475 9.60181 10.9475C12.1416 10.9475 14.1979 12.9824 14.1979 15.4933C14.1979 18.0043 12.1406 20.0402 9.60181 20.0402Z" fill="#00D352"/>
<g filter="url(#filter0_d_7702_319)">
<circle cx="22.5" cy="21.5" r="6.5" fill="white"/>
</g>
<path d="M22.373 20.8955C22.7656 20.8955 23.1143 20.9702 23.4189 21.1196C23.7266 21.269 23.9683 21.4888 24.144 21.7788C24.3198 22.0688 24.4077 22.4263 24.4077 22.8511C24.4077 23.314 24.311 23.7139 24.1177 24.0508C23.9272 24.3848 23.6416 24.6411 23.2607 24.8198C22.8828 24.9985 22.4111 25.0879 21.8457 25.0879C21.5088 25.0879 21.1909 25.0586 20.8921 25C20.5962 24.9443 20.3369 24.8579 20.1143 24.7407V23.5674C20.3369 23.6846 20.6035 23.7842 20.9141 23.8662C21.2275 23.9453 21.522 23.9849 21.7974 23.9849C22.0669 23.9849 22.2939 23.9497 22.4785 23.8794C22.6631 23.8062 22.8022 23.6948 22.896 23.5454C22.9927 23.3931 23.041 23.1997 23.041 22.9653C23.041 22.6519 22.9355 22.4116 22.7246 22.2446C22.5137 22.0776 22.1899 21.9941 21.7534 21.9941C21.5864 21.9941 21.4121 22.0103 21.2305 22.0425C21.0518 22.0747 20.9023 22.1069 20.7822 22.1392L20.2417 21.8491L20.4834 18.5752H23.9683V19.7266H21.6743L21.5557 20.9878C21.6553 20.9673 21.7637 20.9468 21.8809 20.9263C21.998 20.9058 22.1621 20.8955 22.373 20.8955Z" fill="black"/>
</g>
<defs>
<filter id="filter0_d_7702_319" x="14" y="13" width="17" height="17" filterUnits="userSpaceOnUse" color-interpolation-filters="sRGB">
<feFlood flood-opacity="0" result="BackgroundImageFix"/>
<feColorMatrix in="SourceAlpha" type="matrix" values="0 0 0 0 0 0 0 0 0 0 0 0 0 0 0 0 0 0 127 0" result="hardAlpha"/>
<feOffset/>
<feGaussianBlur stdDeviation="1"/>
<feComposite in2="hardAlpha" operator="out"/>
<feColorMatrix type="matrix" values="0 0 0 0 0 0 0 0 0 0 0 0 0 0 0 0 0 0 0.5 0"/>
<feBlend mode="normal" in2="BackgroundImageFix" result="effect1_dropShadow_7702_319"/>
<feBlend mode="normal" in="SourceGraphic" in2="effect1_dropShadow_7702_319" result="shape"/>
</filter>
<clipPath id="clip0_7702_319">
<rect width="30" height="30" fill="white"/>
</clipPath>
</defs>
</svg>
