<svg width="30" height="30" viewBox="0 0 30 30" fill="none" xmlns="http://www.w3.org/2000/svg">
<g clip-path="url(#clip0_5193_4838)">
<path d="M7.9125 12H6.4L4.12266 8.81602V12H2.79063V5.71797H4.12266V8.76016L6.37422 5.71797H7.79219L5.50195 8.73437L7.9125 12ZM10.3098 5.71797C11.1204 5.71797 11.712 5.89271 12.0844 6.24219C12.4568 6.5888 12.643 7.06719 12.643 7.67734C12.643 7.95234 12.6014 8.21589 12.5184 8.46797C12.4353 8.71719 12.2992 8.93919 12.1102 9.13398C11.924 9.32878 11.6747 9.48346 11.3625 9.59805C11.0503 9.70977 10.665 9.76562 10.2066 9.76562H9.63516V12H8.30312V5.71797H10.3098ZM10.241 6.80937H9.63516V8.67422H10.0734C10.3227 8.67422 10.5389 8.64128 10.7223 8.57539C10.9056 8.50951 11.0474 8.40638 11.1477 8.26602C11.2479 8.12565 11.298 7.94518 11.298 7.72461C11.298 7.41523 11.2121 7.18607 11.0402 7.03711C10.8684 6.88529 10.602 6.80937 10.241 6.80937ZM17.0469 12H13.4289V5.71797H17.0469V6.80937H14.7609V8.18867H16.8879V9.28008H14.7609V10.9H17.0469V12ZM7.71055 13.718V18.8914H8.54844V21.8305H7.26367V20H3.32773V21.8305H2.04297V18.8914H2.52852C2.6918 18.5648 2.84935 18.2197 3.00117 17.8559C3.15299 17.4921 3.29479 17.101 3.42656 16.6828C3.55833 16.2646 3.67721 15.8105 3.7832 15.3207C3.88919 14.8309 3.97799 14.2966 4.04961 13.718H7.71055ZM6.38281 14.8266H5.10664C5.06367 15.1302 5.00495 15.4539 4.93047 15.7977C4.85599 16.1414 4.76719 16.4923 4.66406 16.8504C4.5638 17.2056 4.45065 17.5565 4.32461 17.9031C4.20143 18.2497 4.06966 18.5792 3.9293 18.8914H6.38281V14.8266ZM9.11953 13.718H10.3184V16.7516C10.3184 16.9005 10.3155 17.0652 10.3098 17.2457C10.3069 17.4262 10.3012 17.6038 10.2926 17.7785C10.2868 17.9504 10.2811 18.1008 10.2754 18.2297C10.2697 18.3586 10.2639 18.4445 10.2582 18.4875H10.284L13.1844 13.718H14.7785V20H13.5926V16.9836C13.5926 16.8232 13.5954 16.6484 13.6012 16.4594C13.6069 16.2703 13.6141 16.087 13.6227 15.9094C13.6341 15.7318 13.6441 15.5785 13.6527 15.4496C13.6613 15.3178 13.6671 15.2305 13.6699 15.1875H13.6355L10.7223 20H9.11953V13.718ZM18.3875 20H17.0555V14.8266H15.3496V13.718H20.0934V14.8266H18.3875V20Z" fill="black"/>
<g filter="url(#filter0_d_5193_4838)">
<circle cx="22.5" cy="21.5" r="6.5" fill="white"/>
</g>
<path d="M21.0674 25H19.7095V21.2822C19.7095 21.1797 19.7109 21.0537 19.7139 20.9043C19.7168 20.752 19.7212 20.5967 19.7271 20.4385C19.7329 20.2773 19.7388 20.1323 19.7446 20.0034C19.7124 20.0415 19.6465 20.1074 19.5469 20.2012C19.4502 20.292 19.3594 20.374 19.2744 20.4473L18.5361 21.0405L17.8813 20.2231L19.9512 18.5752H21.0674V25ZM26.8164 21.7876C26.8164 22.3062 26.7754 22.769 26.6934 23.1763C26.6143 23.5835 26.4854 23.9292 26.3066 24.2134C26.1309 24.4976 25.8994 24.7144 25.6123 24.8638C25.3252 25.0132 24.9766 25.0879 24.5664 25.0879C24.0508 25.0879 23.6274 24.9575 23.2964 24.6968C22.9653 24.4331 22.7207 24.0552 22.5625 23.563C22.4043 23.0679 22.3252 22.4761 22.3252 21.7876C22.3252 21.0933 22.397 20.5 22.5405 20.0078C22.687 19.5127 22.9243 19.1333 23.2524 18.8696C23.5806 18.606 24.0186 18.4741 24.5664 18.4741C25.0791 18.4741 25.501 18.606 25.832 18.8696C26.166 19.1304 26.4136 19.5083 26.5747 20.0034C26.7358 20.4956 26.8164 21.0903 26.8164 21.7876ZM23.6743 21.7876C23.6743 22.2769 23.7007 22.6855 23.7534 23.0137C23.8091 23.3389 23.9014 23.5835 24.0303 23.7476C24.1592 23.9116 24.3379 23.9937 24.5664 23.9937C24.792 23.9937 24.9692 23.9131 25.0981 23.752C25.23 23.5879 25.3237 23.3433 25.3794 23.0181C25.4351 22.6899 25.4629 22.2798 25.4629 21.7876C25.4629 21.2983 25.4351 20.8896 25.3794 20.5615C25.3237 20.2334 25.23 19.9873 25.0981 19.8232C24.9692 19.6562 24.792 19.5728 24.5664 19.5728C24.3379 19.5728 24.1592 19.6562 24.0303 19.8232C23.9014 19.9873 23.8091 20.2334 23.7534 20.5615C23.7007 20.8896 23.6743 21.2983 23.6743 21.7876Z" fill="black"/>
</g>
<defs>
<filter id="filter0_d_5193_4838" x="14" y="13" width="17" height="17" filterUnits="userSpaceOnUse" color-interpolation-filters="sRGB">
<feFlood flood-opacity="0" result="BackgroundImageFix"/>
<feColorMatrix in="SourceAlpha" type="matrix" values="0 0 0 0 0 0 0 0 0 0 0 0 0 0 0 0 0 0 127 0" result="hardAlpha"/>
<feOffset/>
<feGaussianBlur stdDeviation="1"/>
<feComposite in2="hardAlpha" operator="out"/>
<feColorMatrix type="matrix" values="0 0 0 0 0 0 0 0 0 0 0 0 0 0 0 0 0 0 0.5 0"/>
<feBlend mode="normal" in2="BackgroundImageFix" result="effect1_dropShadow_5193_4838"/>
<feBlend mode="normal" in="SourceGraphic" in2="effect1_dropShadow_5193_4838" result="shape"/>
</filter>
<clipPath id="clip0_5193_4838">
<rect width="30" height="30" fill="white"/>
</clipPath>
</defs>
</svg>
