<svg width="100" height="24" viewBox="0 0 100 24" fill="none" xmlns="http://www.w3.org/2000/svg">
<path fill-rule="evenodd" clip-rule="evenodd" d="M12.1838 0C37.5739 0.00495475 62.9616 -0.00247738 88.3517 0.00495475C90.9803 -0.00743213 93.5993 0.936448 95.6465 2.63593C98.34 4.84079 100.02 8.32893 99.9979 11.8864C100.056 14.8172 98.9815 17.743 97.0906 19.928C94.9232 22.4921 91.6579 23.976 88.3661 23.9909C63.7713 23.9983 39.1765 23.9909 14.5817 23.9934C12.5081 23.9785 10.3865 24.1346 8.37536 23.4929C4.60781 22.3856 1.50102 19.1798 0.453412 15.2829C-0.356323 12.4736 -0.0607819 9.38677 1.17665 6.7558C2.76488 3.33207 6.02304 0.805147 9.65603 0.178371C10.4898 0.0322059 11.3404 0 12.1838 0Z" fill="#43B02A"/>
<path d="M11.7817 4.55545C14.6163 4.04576 17.6737 5.47834 19.1856 8.00205C19.9164 9.23174 18.8477 11.0676 17.4341 10.8598C16.6386 10.9662 16.0779 10.3204 15.6514 9.72659C14.6115 8.39545 12.6371 8.04906 11.2115 8.90762C9.77145 9.70432 8.95679 11.6515 9.55101 13.2524C9.99907 14.8037 11.5613 15.9517 13.1355 15.7909C14.4054 15.8478 15.3758 14.8928 16.1689 13.9971C17.2232 12.9456 19.1497 13.8412 19.2407 15.3035C19.3869 16.595 18.2727 17.5031 17.4173 18.2453C14.6163 20.5167 10.2602 20.2223 7.76115 17.6045C5.20455 15.1328 4.77805 10.7361 6.82429 7.79669C7.95523 6.0771 9.79541 4.88947 11.7817 4.55545Z" fill="white"/>
<path fill-rule="evenodd" clip-rule="evenodd" d="M34.6185 10.5702C33.9236 6.63119 29.8575 3.77841 26.055 4.59243C22.0008 5.23078 19.0465 9.78831 20.1319 13.8955C20.9226 17.733 24.8929 20.4497 28.6259 19.6803C32.6226 19.0741 35.5889 14.6403 34.6185 10.5702ZM23.7932 12.3664C23.635 10.5355 25.0128 8.76643 26.7691 8.50169C28.7338 8.08849 30.7969 9.75117 30.9143 11.8147C31.1467 13.8683 29.3928 15.907 27.3729 15.8031C25.5375 15.9145 23.865 14.2394 23.7932 12.3664Z" fill="white"/>
<path d="M35.9695 6.39166C35.9048 4.88238 37.8361 3.87537 38.967 4.85269C40.5412 6.34713 42.0076 7.96774 43.5339 9.51414C44.9979 8.02218 46.4355 6.50053 47.9091 5.01847C48.4482 4.46671 49.3324 4.27867 50.0201 4.63496C50.7509 4.97146 51.2157 5.81764 51.1774 6.63661C51.1702 10.3653 51.1822 14.0939 51.1702 17.8226C51.1846 18.9756 50.0896 19.9776 48.9778 19.7822C48.0505 19.6783 47.2957 18.79 47.3125 17.8275C47.2981 15.6378 47.3077 13.4457 47.3125 11.256C46.4763 12.0873 45.6616 12.9434 44.8326 13.7822C44.1952 14.4205 43.1434 14.5071 42.4365 13.9356C41.4829 13.129 40.7066 12.1244 39.7889 11.2708C39.7625 13.4877 39.8104 15.7047 39.7673 17.9191C39.7721 19.0746 38.5956 20.0197 37.5126 19.7649C36.6332 19.609 35.8857 18.7381 35.9647 17.7978C35.9623 13.995 35.9528 10.1945 35.9695 6.39166Z" fill="white"/>
<path d="M52.7504 6.46304C52.7144 5.34716 53.7136 4.38964 54.7798 4.45644C57.346 4.46139 59.9122 4.45149 62.4784 4.46139C63.1828 4.46139 63.8681 4.91417 64.182 5.5649C64.7978 6.69067 63.9879 8.35335 62.7036 8.38551C60.6694 8.43747 58.6303 8.39046 56.596 8.40778C56.5937 9.21933 56.5937 10.0333 56.596 10.8449C58.314 10.8523 60.032 10.8375 61.75 10.8474C62.96 10.8004 64.0454 12.0919 63.698 13.3216C63.5063 14.2371 62.6317 14.8903 61.7356 14.8507C60.0224 14.863 58.3092 14.8457 56.596 14.8531C56.5793 15.8997 56.6248 16.9463 56.5793 17.9905C56.517 19.1979 55.2111 20.101 54.1041 19.7026C53.5554 19.5715 53.2104 19.0865 52.8774 18.661C52.6497 17.5575 52.7623 16.4268 52.7408 15.3109C52.748 12.3616 52.7216 9.41232 52.7504 6.46304Z" fill="white"/>
<path d="M65.2101 6.65238C65.0137 5.34599 66.365 4.13857 67.5846 4.52702C68.4281 4.77939 68.9121 5.59094 69.5326 6.16743C70.4791 7.08537 71.3489 8.08743 72.3073 8.99795C73.6467 7.66187 74.931 6.26888 76.2752 4.93774C77.0228 4.23506 78.2639 4.33898 78.9204 5.12331C79.6009 5.86063 79.5842 7.12743 78.8725 7.83506C77.3295 9.45073 75.7552 11.0367 74.217 12.6598C74.2122 14.3794 74.2409 16.099 74.2098 17.8186C74.2529 18.7415 73.5365 19.5926 72.6715 19.7534C71.5453 20.0256 70.3162 19.0037 70.3976 17.7988C70.3809 16.0866 70.3976 14.3744 70.3928 12.6623C69.1541 11.3163 67.8386 10.0445 66.5927 8.70599C66.032 8.1097 65.2389 7.57032 65.2101 6.65238Z" fill="white"/>
<path d="M82.0288 13.1694C82.0288 13.1694 81.7857 13.6183 81.7671 13.8985C81.7485 14.1787 81.9358 16.4605 82.3462 16.9651C82.7566 17.4698 84.0103 18.798 87.7118 18.8351C91.4133 18.8723 93.3019 17.1896 93.5078 16.8536C93.7136 16.5176 93.9753 14.9464 93.9938 13.7126C94.0124 12.4787 87.4316 13.338 87.4316 13.338L82.0288 13.1694Z" fill="#FFF7E9"/>
<path d="M88.0491 8.31265C86.6466 8.31929 82.4218 8.64867 81.9915 10.4443C81.5612 12.2399 81.6169 13.9227 81.6926 14.0714C81.767 14.2215 81.9344 13.9625 82.3288 14.1086C82.8335 14.2959 82.7963 15.6598 83.7127 15.9029C84.6291 16.1459 84.6477 14.8935 85.6943 14.9679C86.7409 15.0423 86.2548 16.4461 87.6387 16.4634C89.0598 16.4819 88.5325 15.0741 89.5273 14.9493C90.5114 14.8244 89.9948 16.3518 91.3601 16.1459C92.7254 15.9401 92.5673 13.997 93.2659 13.7912C93.7959 13.6358 93.7507 14.1564 94.0017 14.1338C94.2076 14.1152 94.1266 11.2664 93.9393 10.6316C93.752 9.99671 91.9936 8.29406 88.0491 8.31265Z" fill="url(#paint0_linear_22178_54443)"/>
<path d="M83.7951 12.3189C82.8004 11.8992 82.479 11.5021 82.3183 11.3002C82.2067 11.1594 82.038 11.1036 81.9437 11.2165C81.8508 11.3281 81.8972 11.4503 81.9995 11.5711C82.1018 11.6933 82.56 12.3932 83.738 12.7771C84.774 13.1144 85.4579 13.1609 85.7196 13.1702C86.0104 13.1808 86.1313 12.8156 85.7475 12.7678C85.3079 12.7133 84.8802 12.7771 83.7951 12.3189ZM86.7834 12.9019C86.5284 12.8953 86.4341 13.0387 86.4341 13.1516C86.4341 13.2884 86.5523 13.3641 86.7582 13.3761C86.964 13.388 87.0822 13.2512 87.0822 13.1582C87.0836 13.0639 87.0265 12.9072 86.7834 12.9019Z" fill="#FDFFFF"/>
<path d="M82.7579 13.7919C82.641 13.9061 82.6901 14.0389 82.7459 14.108C82.8375 14.2209 83.0022 14.2395 83.0872 14.1731C83.1842 14.0987 83.1722 13.9606 83.1111 13.8689C83.0328 13.7494 82.8734 13.6777 82.7579 13.7919ZM83.0846 14.2833C82.9239 14.3736 82.9956 14.5742 83.0819 14.7389C83.2665 15.0895 83.325 15.375 83.5375 15.5158C83.7526 15.6579 84.0182 15.5596 83.993 15.4122C83.9532 15.1771 83.8084 15.3551 83.6836 15.0576C83.6318 14.9341 83.5255 14.7362 83.402 14.4692C83.3303 14.3125 83.2466 14.1917 83.0846 14.2833ZM86.8272 15.2303C86.6692 15.3432 86.7648 15.6287 86.964 15.8532C87.1632 16.0776 87.4435 16.2582 87.7489 16.1772C87.9854 16.1148 87.9668 15.8531 87.8047 15.7788C87.6427 15.7044 87.4501 15.7482 87.2748 15.5171C87.1898 15.4042 87.0703 15.0563 86.8272 15.2303ZM90.5805 14.9846C90.4238 15.1001 90.5712 15.3405 90.6682 15.5065C90.7651 15.6725 91.0852 15.9913 91.2725 15.8027C91.4093 15.6646 91.1516 15.4972 91.0307 15.3166C90.9404 15.1798 90.789 14.8292 90.5805 14.9846ZM90.3109 14.5516C90.2073 14.6273 90.2232 14.7468 90.2604 14.8132C90.3109 14.9009 90.4729 14.9381 90.5659 14.8571C90.6562 14.7787 90.6031 14.6512 90.5539 14.5888C90.5048 14.5264 90.38 14.5011 90.3109 14.5516Z" fill="white"/>
<path d="M90.9486 6.93269C90.9971 6.86762 91.9109 6.94066 91.9927 6.96058C92.0315 6.96988 92.0218 10.3075 91.9733 10.3353C91.9317 10.3593 91.7681 10.504 91.4561 10.504C91.1441 10.504 90.968 10.4018 90.9098 10.3632C90.8516 10.3261 90.9001 6.99777 90.9486 6.93269Z" fill="white"/>
<path d="M87.4793 8.06607C87.4434 8.09662 87.4328 11.32 87.4607 11.3479C87.4886 11.3758 87.6758 11.5444 88.0397 11.5351C88.405 11.5258 88.5723 11.3943 88.6002 11.3665C88.6281 11.3386 88.6188 8.06607 88.5909 8.04748C88.563 8.02755 87.535 8.01826 87.4793 8.06607Z" fill="white"/>
<path d="M84.0234 6.85193C83.9764 6.87849 83.975 10.1523 83.9944 10.1802C84.0137 10.2081 84.2954 10.3024 84.5577 10.3024C84.8201 10.3024 85.0728 10.2466 85.1018 10.2187C85.1308 10.1908 85.1114 6.89044 85.0824 6.85326C85.0534 6.81607 84.0717 6.82404 84.0234 6.85193Z" fill="white"/>
<path d="M88.0492 5.10156C88.105 5.10156 88.1807 5.54117 88.2829 5.79352C88.3852 6.04586 88.769 6.67273 88.6189 7.21461C88.4556 7.80828 87.5299 7.92383 87.3293 7.14953C87.1886 6.60766 87.6654 6.04586 87.7875 5.79352C87.8712 5.61953 88.0107 5.10156 88.0492 5.10156Z" fill="url(#paint1_linear_22178_54443)"/>
<path d="M91.4134 4.10938C91.4134 4.10938 91.2753 4.73891 91.1053 5.00719C90.8622 5.39102 90.7082 5.91563 90.8994 6.34461C91.1425 6.88648 92.116 6.85859 92.1333 5.93289C92.1426 5.4468 91.9301 5.18914 91.7786 4.91422C91.6751 4.72695 91.4785 4.12797 91.4134 4.10938Z" fill="url(#paint2_linear_22178_54443)"/>
<path d="M84.5731 4C84.5731 4 84.3207 4.62688 84.1614 4.86063C84.002 5.09438 83.7191 5.64555 83.8811 6.08516C84.0777 6.61773 84.9476 6.68148 85.115 5.98289C85.2265 5.51539 84.9835 5.16078 84.8161 4.77695C84.7112 4.53523 84.5731 4 84.5731 4Z" fill="url(#paint3_linear_22178_54443)"/>
<defs>
<linearGradient id="paint0_linear_22178_54443" x1="87.8815" y1="8.3125" x2="87.8815" y2="16.4635" gradientUnits="userSpaceOnUse">
<stop stop-color="#FF671F"/>
<stop offset="1" stop-color="#FDAE55"/>
</linearGradient>
<linearGradient id="paint1_linear_22178_54443" x1="88.0404" y1="5.10156" x2="88.0404" y2="7.69523" gradientUnits="userSpaceOnUse">
<stop offset="0.17" stop-color="#FF9616"/>
<stop offset="0.945" stop-color="#FFDF5D"/>
</linearGradient>
<linearGradient id="paint2_linear_22178_54443" x1="91.5341" y1="4.10937" x2="91.5341" y2="6.70158" gradientUnits="userSpaceOnUse">
<stop offset="0.17" stop-color="#FF9616"/>
<stop offset="0.945" stop-color="#FFDF5D"/>
</linearGradient>
<linearGradient id="paint3_linear_22178_54443" x1="84.5481" y1="4" x2="84.5481" y2="6.49583" gradientUnits="userSpaceOnUse">
<stop offset="0.17" stop-color="#FF9616"/>
<stop offset="0.945" stop-color="#FFDF5D"/>
</linearGradient>
</defs>
</svg>
